<?xml version="1.0" encoding="UTF-8" standalone="no"?>
<!-- Created with Inkscape (http://www.inkscape.org/) -->

<svg
   width="152.43427mm"
   height="71.063545mm"
   viewBox="0 0 152.43427 71.063545"
   version="1.1"
   id="svg1"
   xml:space="preserve"
   inkscape:version="1.3.2 (091e20e, 2023-11-25, custom)"
   sodipodi:docname="Logo.svg"
   inkscape:export-filename="Logo.png"
   inkscape:export-xdpi="96"
   inkscape:export-ydpi="96"
   xmlns:inkscape="http://www.inkscape.org/namespaces/inkscape"
   xmlns:sodipodi="http://sodipodi.sourceforge.net/DTD/sodipodi-0.dtd"
   xmlns="http://www.w3.org/2000/svg"
   xmlns:svg="http://www.w3.org/2000/svg"><sodipodi:namedview
     id="namedview1"
     pagecolor="#ffffff"
     bordercolor="#000000"
     borderopacity="0.25"
     inkscape:showpageshadow="2"
     inkscape:pageopacity="0.0"
     inkscape:pagecheckerboard="0"
     inkscape:deskcolor="#d1d1d1"
     inkscape:document-units="mm"
     inkscape:zoom="2.141816"
     inkscape:cx="463.62526"
     inkscape:cy="475.53104"
     inkscape:window-width="3440"
     inkscape:window-height="1369"
     inkscape:window-x="-8"
     inkscape:window-y="-8"
     inkscape:window-maximized="1"
     inkscape:current-layer="layer1"
     showguides="true" /><defs
     id="defs1"><inkscape:path-effect
       effect="fillet_chamfer"
       id="path-effect95"
       is_visible="true"
       lpeversion="1"
       nodesatellites_param="F,0,0,1,0,6.4569727,0,1 @ F,0,0,1,0,0,0,1 @ F,0,0,1,0,0,0,1 @ F,0,0,1,0,0,0,1 @ F,0,0,1,0,0,0,1 @ F,0,0,1,0,0,0,1 @ F,0,0,1,0,0,0,1 @ F,0,0,1,0,0,0,1 @ F,0,1,1,0,6.4569727,0,1 @ F,0,0,1,0,0,0,1 @ F,0,0,1,0,0,0,1 @ F,0,0,1,0,0,0,1 @ F,0,0,1,0,0,0,1 @ F,0,0,1,0,0,0,1 @ F,0,0,1,0,0,0,1"
       radius="0"
       unit="px"
       method="auto"
       mode="F"
       chamfer_steps="1"
       flexible="false"
       use_knot_distance="true"
       apply_no_radius="true"
       apply_with_radius="true"
       only_selected="false"
       hide_knots="false" /><inkscape:path-effect
       effect="powerstroke"
       id="path-effect94"
       is_visible="true"
       lpeversion="1.3"
       scale_width="1"
       interpolator_type="CentripetalCatmullRom"
       interpolator_beta="0.2"
       start_linecap_type="zerowidth"
       end_linecap_type="zerowidth"
       offset_points="0.20286689,0.82969282 | 0.50268436,1.5667612 | 0.80004761,0.89611994"
       linejoin_type="round"
       miter_limit="4"
       not_jump="false"
       sort_points="true"
       message="&lt;b&gt;Ctrl + click&lt;/b&gt; on existing node and move it" /><filter
       inkscape:collect="always"
       style="color-interpolation-filters:sRGB"
       id="filter177"
       x="-0.0086921182"
       y="-0.021727283"
       width="1.0173842"
       height="1.0434546"><feGaussianBlur
         inkscape:collect="always"
         stdDeviation="0.54264032"
         id="feGaussianBlur177" /></filter></defs><g
     inkscape:label="Layer 1"
     inkscape:groupmode="layer"
     id="layer1"
     transform="translate(-27.723282,-101.84393)"><g
       id="g1"
       inkscape:export-filename="..\..\Pencilvania-Hotsite\static\images\logo.svg"
       inkscape:export-xdpi="96"
       inkscape:export-ydpi="96"><path
         id="path113"
         clip-path="none"
         mask="none"
         style="font-size:21.0759px;font-family:Vollkorn;-inkscape-font-specification:'Vollkorn, Normal';text-align:center;text-anchor:middle;mix-blend-mode:normal;fill:#d0032f;fill-opacity:1;stroke:none;stroke-width:0.549464;stroke-linecap:round;paint-order:markers stroke fill;filter:url(#filter177)"
         d="m 89.981588,103.32496 c -0.331916,-0.003 -0.674985,-7e-4 -1.031462,0.005 0,0 1.912305,0.93888 3.177584,2.07429 0.732866,0.65765 1.942311,2.17707 1.969906,2.21175 1.358368,-0.16035 2.894638,-0.34526 4.425052,-0.49403 -0.718741,-0.83834 -1.580782,-1.56081 -2.515092,-2.18849 -1.930205,-1.29671 -3.702578,-1.58768 -6.025988,-1.60869 z m -4.49585,0.5364 c -0.920906,-0.006 -1.816448,0.0664 -2.705261,0.20722 v -10e-4 c -0.711105,0.1123 -1.418088,0.26875 -2.131136,0.46354 0.835036,0.30145 1.777725,0.55969 3.17345,1.35547 1.503905,0.85747 1.913221,0.94892 3.00085,2.20503 -0.517944,-0.34467 -2.074251,-1.29092 -2.657719,-1.50688 -1.005403,-0.37215 -2.816246,-1.14659 -4.744413,-1.17099 -1.819762,-0.023 -2.992724,0.56959 -4.673617,1.28468 1.230755,0.0481 2.270983,0.24604 3.434933,0.59376 0.862965,0.25781 1.649114,0.70483 2.442745,1.13068 -0.70391,-0.22337 -1.281617,-0.37992 -2.004012,-0.5333 -0.758117,-0.16097 -3.873403,-0.60377 -5.990849,0.12609 -2.079993,0.71692 -4.717542,3.14089 -4.717542,3.14089 1.087096,0.004 2.132044,0.0589 3.237529,0.21446 0.896567,0.12617 2.520337,0.51307 3.412711,0.66611 0,0 -2.206206,-0.13226 -3.162081,-0.1757 -2.000246,-0.0909 -3.877505,-0.0599 -5.266861,0.79737 -1.445081,0.89162 -1.713188,2.3109 -2.926437,2.98948 0.672698,-0.0476 1.024393,-0.2519 1.708423,-0.24133 l 1.647961,0.0258 c -1.995593,0.22495 -3.32289,0.61987 -4.018876,0.99012 -0.568893,0.86235 -0.793713,1.31646 -2.247925,2.94814 -0.493113,0.55329 -1.62419,1.71772 -1.62419,1.71772 1.610703,-0.37636 3.101012,-0.41644 4.875155,-0.99167 1.197167,-0.38818 2.234034,-1.05903 3.234428,-1.82263 0.545013,-0.41602 0.989828,-0.7644 1.602486,-1.31981 0,0 -1.281814,1.59557 -2.103231,2.35954 -0.789354,0.73414 -2.440161,1.541 -2.440161,1.541 2.201857,-0.28195 4.034215,-0.53935 5.809464,-1.56993 1.764018,-1.02403 3.278041,-3.35389 4.628659,-4.92374 -0.673305,1.61998 -1.200419,3.36828 -2.557984,4.91495 2.069895,-1.27841 4.577259,-1.00898 6.357752,-2.10323 0.382364,-0.5068 0.444913,-1.44645 0.409794,-2.27583 0.34979,0.5454 0.639564,1.10002 0.898653,1.89394 2.196313,-0.007 3.828185,-0.70011 5.62653,-1.64331 1.002975,-0.52606 3.493203,-2.61365 4.362007,-4.28243 0,0 -1.066493,2.03879 -1.792655,3.01171 -0.509712,0.68291 -1.598383,1.7579 -1.828312,1.9389 1.67615,-0.43393 2.727204,-0.96712 4.117061,-2.0097 1.513721,-1.16746 2.838414,-2.89511 3.690731,-3.96927 0,0 -0.310994,1.72779 -1.586466,3.34967 -0.489383,0.6223 -2.152841,1.83658 -2.152841,1.83658 l 1.997811,-0.45889 c 2.689788,-0.51456 4.402603,-1.61464 5.998601,-3.58686 l 1.099674,-1.35909 c 0,0 -0.175971,1.18857 -0.57981,1.82315 -0.428472,0.67331 -0.848527,1.21594 -0.848527,1.21594 0,0 1.006318,-0.56594 1.782837,-1.26349 0.963363,-0.86539 1.543923,-1.92521 1.720823,-2.27376 1.66182,-0.008 3.23423,0.062 4.75527,0.25683 1.85362,0.23745 3.46988,0.63094 5.01003,1.14257 2.74205,0.91091 4.9714,2.14191 5.45393,1.99109 0.14909,-0.0466 0.16484,-0.27408 0.19844,-0.32969 0.0332,-0.0549 0.22931,-0.17539 0.19947,-0.32918 -0.095,-0.48999 -2.30968,-2.06449 -5.24413,-3.10162 -1.65591,-0.58526 -3.43554,-0.97636 -5.42189,-1.15962 -1.8531,-0.17099 -3.74146,-0.1488 -5.70714,-0.0295 -2.142713,0.13007 -4.563772,0.39451 -6.468343,0.58756 7.6e-5,-1e-5 -0.06468,0.007 -0.06459,0.007 -7.665649,0.76384 -14.366328,2.66829 -19.776571,4.74803 -3.071963,1.1809 -5.570853,2.35799 -7.311698,3.22565 -0.494604,0.24652 -0.927138,0.45602 -1.322917,0.66094 -0.460684,0.23853 -0.889949,0.46995 -1.284159,0.68833 -0.736948,0.40828 -1.089012,0.6428 -1.065568,0.68626 -0.0253,-0.0427 0.322514,-0.28253 1.054199,-0.7028 0.390776,-0.22447 0.816368,-0.46235 1.273307,-0.70797 0.392561,-0.21103 0.821855,-0.42695 1.312582,-0.68109 1.727203,-0.89452 4.207232,-2.1105 7.260538,-3.33882 5.377388,-2.16327 12.048224,-4.17106 19.701123,-5.05343 -8.4e-5,1e-5 0.0646,-0.007 0.0646,-0.007 0.08168,-0.01 0.18621,-0.0217 0.269751,-0.0315 -2.501974,-2.14272 -4.397175,-3.55444 -7.466211,-3.74861 -0.31339,-0.0198 -0.623207,-0.0305 -0.930176,-0.0326 z m 11.884546,0.92087 c 0,0 0.814437,0.90073 1.251086,1.49397 0.149448,0.20304 0.315632,0.51143 0.459404,0.79633 0.33194,-0.0295 0.668034,-0.0623 0.990116,-0.0868 0.0707,-0.006 0.13979,-0.008 0.21033,-0.0134 -0.27208,-0.37964 -0.575064,-0.77081 -0.854731,-1.01441 -0.693265,-0.60389 -2.056205,-1.17564 -2.056205,-1.17564 z m 69.841736,6.70554 c -0.74637,-0.007 -1.50352,0.16269 -2.04691,0.58136 -1.03034,0.79389 -1.20051,1.40643 -1.41645,2.01228 -0.12808,0.35935 -0.18211,0.94553 -0.20412,1.44332 -0.0223,0.50494 0.19791,0.56259 0.46767,0.13488 0.26907,-0.42662 0.59011,-0.91454 0.79065,-1.14619 0.2851,-0.32932 0.58295,-0.56672 1.27848,-0.59583 0.26017,-0.0109 1.16519,0.2093 1.15238,0.68472 -1.34861,6.51109 -2.75145,12.89969 -4.1367,19.34714 -1.45237,0.2698 -2.55281,1.54267 -2.55281,3.07319 0,1.06879 0.53683,2.01164 1.35495,2.57556 -0.1315,0.62525 -0.2657,1.24301 -0.39636,1.87068 -0.17081,0.73665 -0.33655,1.40075 -0.62838,1.90376 -0.16208,0.27939 -0.38611,0.4803 -0.79427,0.88574 1.65811,0.36614 3.38435,0.78953 5.3852,1.68052 -0.62665,-1.07879 -0.95574,-1.52373 -1.03043,-1.89291 -0.19927,-0.65186 -0.1802,-1.16081 -0.0589,-1.98696 0.22427,-1.18252 0.50689,-2.35775 0.71314,-3.54759 l 0.17932,-0.89297 c 1.87928,-1.03922 3.83907,-1.45035 5.85649,-1.40766 l 0.45061,2.12855 c 0.48402,2.43702 1.21044,4.78501 1.62988,7.23728 0.24167,1.41292 1.15521,1.77333 1.09657,4.67775 l 4.55321,2.66909 c 0,-3.49266 -1.8495,-8.83408 -1.8495,-8.83408 -1.73727,-7.22715 -3.31063,-14.49392 -4.98264,-21.73666 -0.73311,-3.22655 -1.46747,-6.45282 -2.19986,-9.67951 -0.15163,-0.66779 -1.36667,-1.17297 -2.6107,-1.18546 z m -125.490019,1.34514 v 5.1e-4 c -2.417006,0.002 -4.851054,0.65645 -7.05435,2.09031 -3.603556,2.34516 -5.64203,5.39421 -5.642033,9.33845 -3e-6,4.63135 3.70696,8.38614 8.279598,8.38605 4.572639,9e-5 8.279601,-3.7547 8.279598,-8.38605 0,0 0.01501,-1.58543 -1.484147,-1.58543 -1.499227,0 -1.484664,1.58543 -1.484664,1.58543 2.44e-4,3.02191 -2.377337,5.47186 -5.310787,5.47202 -2.933768,3e-4 -5.312582,-2.44978 -5.312337,-5.47202 1.61e-4,-2.62718 0.885021,-4.16572 3.233395,-6.12314 2.348372,-1.95743 9.803542,-3.10906 14.188798,3.60082 1.322868,2.0241 1.262972,4.6061 1.262972,7.85275 0,2.55665 -0.210431,4.52523 -0.631486,5.90506 -0.421057,1.33925 -0.969109,2.27227 -1.642794,2.79983 -0.673689,0.52759 -1.399724,0.79117 -2.178679,0.79117 -0.294739,0 -0.578978,-0.0204 -0.852661,-0.061 -0.273684,-0.0812 -0.67206,-0.0443 -0.820621,-0.30437 l -0.292489,-0.51212 v -5.37745 c -2.441634,0 -1.964228,2.24018 -4.057117,2.24018 v 28.48094 c 0,3.51492 1.589227,6.47157 4.11086,7.42436 2.099593,0.79333 5.138852,0.62886 7.506519,-1.26297 2.376058,-1.89855 2.771658,-4.84415 2.257743,-7.12877 -0.464125,-2.06329 -2.531028,-3.53004 -4.573881,-3.56774 -0.211328,-0.004 -0.422469,0.008 -0.631486,0.0351 -0.844971,0.11164 -1.46848,0.48819 -1.935799,0.96532 -0.837323,0.85488 -0.336477,1.21218 0.804602,0.83819 0.260017,-0.0852 0.553528,-0.14163 0.901237,-0.15193 1.924367,-0.0571 3.447639,1.60742 3.323828,3.80442 -0.112934,2.00398 -1.562733,3.43083 -3.386356,3.57446 -2.129074,0.16769 -3.965244,-0.37722 -4.281393,-4.54598 l -0.03876,-22.40483 c 0.942915,0.54694 1.404214,0.60741 2.471684,0.59841 1.600009,0 4.511883,-0.90995 5.564518,-2.28978 1.052636,-1.37984 1.842531,-2.76922 2.368848,-4.92011 0.547371,-2.15091 0.820621,-4.38301 0.820621,-6.69624 0,-2.1103 -0.231373,-4.05897 -0.694531,-5.8446 -0.463161,-1.78565 -1.221644,-3.22648 -2.27428,-4.32222 -2.785121,-3.02467 -6.765829,-4.83098 -10.794173,-4.82709 z m 97.939759,0.7183 c 0,0.3607 0.0136,1.10254 0.10129,1.7539 0.88231,0.23647 1.07701,0.73353 1.40508,1.6216 v 16.72663 c 0,1.5129 -0.0406,2.71035 -0.12196,3.59306 -0.13966,1.46749 -0.45221,2.30142 -1.28261,2.21124 -0.0786,0.46019 -0.1018,1.01148 -0.1018,1.73116 0.76988,-0.0335 1.4249,0.0339 2.03553,0.10025 0.59858,0.065 1.12521,0.12494 2.0159,0.33951 0,-0.97324 -0.0432,-1.39265 -0.10232,-1.75286 -0.83108,-0.0903 -1.143,-0.99217 -1.28261,-2.48977 -0.0814,-0.90039 -0.12144,-2.10705 -0.12144,-3.61993 v -14.02861 l 8.40776,22.76244 c 0.16794,0.0181 0.65367,-0.007 0.87488,-0.1478 v -20.206 c 0,-1.48589 0.0339,-2.63029 0.1018,-3.43338 0.13461,-1.36986 0.40429,-2.26604 1.09916,-2.19056 0.0916,-0.65833 0.1018,-1.29931 0.1018,-1.73168 -0.22901,-0.002 -1.24225,-0.0133 -1.93373,-0.0884 -0.82198,-0.0893 -1.13531,-0.14214 -1.91358,-0.32969 0,0.37669 0.002,0.61047 0.10181,1.7539 0.81179,0.0882 1.13891,0.95536 1.28261,2.44894 0.0814,0.81932 0.12195,1.97229 0.12195,3.45819 v 13.58987 l -7.91993,-21.75992 c -0.95519,0.0968 -1.91,-0.13035 -2.86959,-0.31212 z m -8.184,0.1142 c -0.30091,-3e-4 -0.4786,0.0356 -0.79375,0.1602 l -4.21421,21.39404 c -0.20357,1.04755 -0.38647,1.88033 -0.54932,2.49804 -0.26604,1.05303 -0.54307,1.61749 -1.079,1.8526 -0.11214,0.49967 -0.14315,0.98339 -0.14315,1.69241 0.19,-0.0265 0.43471,-0.0531 0.73329,-0.0796 0.54829,-0.0505 1.09914,-0.0394 1.649,-0.0387 0.58579,0.0652 0.56993,0.001 1.24178,0.12247 0,-0.003 -7.3e-4,-1.10216 -0.14263,-1.73323 -0.55644,-0.0813 -0.89537,-0.417 -1.01751,-1.00821 -0.12628,-2.04775 0.43906,-4.10016 0.82631,-6.0973 2.24725,-0.13231 4.68481,-0.14182 5.38985,-0.14211 l 0.88884,4.11138 c 0.27143,1.23612 0.35246,2.04194 0.24391,2.41794 -0.0951,0.34917 -0.42026,0.59028 -0.97669,0.72399 -0.13762,0.61325 -0.14314,1.12404 -0.14314,1.73322 0.57526,-0.0579 1.15265,-0.0984 1.73064,-0.11989 0.96422,-0.0364 1.93333,-0.0133 2.89078,0.12454 0,-0.80073 -0.0359,-1.17638 -0.12247,-1.73271 -0.56006,-0.22258 -0.78352,-0.80319 -0.99735,-1.57303 -0.14928,-0.53749 -0.33929,-1.30376 -0.56999,-2.29805 z m -5.04878,0.10387 c -1.26596,0.2195 -2.54547,0.43263 -3.80701,0.33487 0,0.89816 0.0728,1.50513 0.10181,1.71152 0.61071,0.0796 0.96388,0.52917 1.05885,1.34772 0.0965,0.70245 0.10291,1.36631 -0.21601,3.34553 -0.19788,1.22802 -0.52087,2.96266 -1.02578,5.52628 -0.57732,3.00114 -1.41256,7.02203 -2.01073,9.75444 l -0.003,-0.0119 c 0,0 -1.38427,-7.19123 -1.95595,-9.99319 -0.52852,-2.59038 -1.17917,-5.15358 -1.5472,-7.78609 -0.0316,-0.71038 0.0249,-1.53299 1.28261,-1.79369 0.0119,-0.13066 0.10181,-1.26593 0.10181,-1.72961 -1.64895,0.26148 -1.93956,0.29132 -2.46342,0.33745 -0.82215,0.0724 -1.65163,0.17821 -2.4629,0.0961 0,0.81537 0.0618,1.40073 0.1018,1.71152 0.54089,0.0705 0.77047,0.48183 1.05834,1.58802 0.51399,1.9752 1.53305,6.79025 1.97507,8.94881 h -5.2e-4 c 0.99471,4.86897 1.94092,9.75236 2.91094,14.62856 0.33988,-0.0299 0.65053,-0.16124 0.79375,-0.22996 1.43917,-6.99886 2.76387,-14.01396 4.2571,-21.00492 0.24534,-1.14865 0.49516,-2.29704 0.75086,-3.44423 0.24429,-0.84844 0.57714,-1.38439 0.99787,-1.60817 0.0618,-0.45145 0.10178,-0.92684 0.10181,-1.7291 z m 28.3378,1.27538 c 0,0.7862 0.026,1.36621 0.1018,1.79059 0.36644,0.10681 0.65168,0.29206 0.85525,0.55552 0.20358,0.26344 0.34593,0.651 0.42736,1.1622 0.0814,0.51118 0.12248,1.23248 0.12248,2.16473 v 17.35656 c 0,0.90486 -0.041,1.6092 -0.12248,2.11253 -0.15335,0.89629 -0.47488,1.21613 -1.28261,1.16169 -0.0633,0.32743 -0.1018,0.80372 -0.1018,1.74614 0.8179,0.0601 1.63772,0.21799 2.46342,0.41032 0.82328,0.19181 1.64712,0.34234 2.46341,0.6568 0,-0.78042 -0.0251,-1.35746 -0.10232,-1.79059 -0.8609,-0.32028 -1.14046,-0.82803 -1.28209,-1.7172 -0.0814,-0.53861 -0.12247,-1.26039 -0.12247,-2.16525 v -17.35604 c 0,-0.93226 0.0411,-1.63665 0.12247,-2.11253 0.0814,-0.47592 0.22378,-0.80143 0.42736,-0.97669 0.21714,-0.17221 0.50188,-0.234 0.85473,-0.185 0.0642,-0.33192 0.10232,-0.8269 0.10232,-1.74666 -1.17411,-0.13599 -1.46336,-0.19317 -2.46341,-0.4098 -1.10369,-0.23909 -1.4287,-0.32305 -2.46342,-0.65732 z m -45.27476,0.68781 c -1.18662,0.35799 -1.47045,0.41958 -2.46393,0.62115 -1.12777,0.2288 -1.70314,0.29958 -2.4629,0.37827 0,0.46621 0.007,1.23384 0.10181,1.71773 0.81506,-0.10544 1.13958,0.33138 1.28261,1.15445 0.0814,0.46855 0.12195,1.16111 0.12195,2.07739 v 16.61449 c 0,1.05104 -0.0471,1.86894 -0.14211,2.45412 -0.12842,0.87601 -0.391,1.48436 -1.28261,1.79627 -0.0633,0.34815 -0.1018,0.83278 -0.1018,1.75906 1.06851,-0.32766 1.34375,-0.39403 2.44274,-0.61701 l 2.82981,-0.57413 c 1.31664,-0.26714 2.63375,-0.51963 3.94859,-0.72037 0.22447,-3.16547 0.38688,-4.59682 0.63201,-6.15104 -0.13535,-0.24134 -0.4014,-0.62703 -0.89607,-0.78859 -0.6279,3.71194 -1.31786,4.53834 -1.77096,4.96766 -0.79974,0.75778 -2.43227,1.1505 -3.07423,0.78548 -0.42492,-0.26905 -0.67179,-0.96305 -0.67179,-3.30006 v -16.49253 c 0,-0.94321 0.041,-1.67957 0.12247,-2.20813 0.11357,-0.73731 0.3507,-1.45478 1.28261,-1.71514 0.0642,-0.35293 0.1018,-0.85505 0.1018,-1.75907 z m -7.22694,1.54771 c -1.1741,0.37998 -1.46387,0.45008 -2.463937,0.67489 -1.103709,0.24813 -1.428706,0.308 -2.463415,0.43254 0,0.72908 0.02283,1.31202 0.101802,1.71152 0.81473,-0.12335 1.139504,0.305 1.282609,1.12344 0.08143,0.46569 0.121957,1.15541 0.121957,2.06965 v 17.02118 c 0,0.88736 -0.04053,1.59573 -0.121957,2.12493 -0.15337,0.94608 -0.474919,1.39988 -1.282609,1.69964 -0.06302,0.34715 -0.101802,0.82654 -0.101802,1.75752 0.817897,-0.29866 1.637727,-0.50249 2.463415,-0.6749 0.823297,-0.17186 1.647647,-0.38403 2.463937,-0.43253 0,-0.76574 -0.0246,-1.32109 -0.10181,-1.71152 -0.86091,0.0623 -1.14097,-0.31339 -1.28261,-1.12345 -0.0814,-0.4926 -0.12247,-1.1828 -0.12247,-2.07016 v -17.02066 c 0,-0.91425 0.041,-1.62265 0.12247,-2.12494 0.11518,-0.71041 0.36399,-1.42355 1.28261,-1.70015 0.0642,-0.35357 0.10181,-0.85498 0.10181,-1.757 z m 28.27114,1.62109 c 0.27655,1.47034 0.59142,2.93237 0.90124,4.3956 l 1.54977,7.17424 -4.61884,-0.005 1.3994,-7.21145 c 0.19503,-1.0293 0.52533,-2.84826 0.76843,-4.35322 z m -39.16712,1.09347 c -0.331456,-0.0265 -0.647128,-0.0181 -0.952913,0.009 -2.290317,0.19864 -3.821033,2.15264 -4.702556,3.75791 -1.690796,3.14141 -2.097029,7.16935 -2.097029,10.31048 0,2.87238 0.362426,8.72972 3.115055,11.86853 0.977161,1.07129 2.096802,1.55227 3.358968,1.4428 1.031445,-0.0895 1.933743,-0.4436 2.707328,-1.06247 0.787158,-0.64628 1.58104,-1.60857 2.381767,-2.88664 -0.02354,-0.31696 -0.229297,-0.98084 -0.366386,-1.19011 -0.906405,1.20667 -2.337933,2.52811 -3.867981,2.66082 -1.085733,0.0942 -2.015394,-0.37693 -2.788977,-1.41335 -2.348141,-3.146 -2.40192,-9.16041 -2.40192,-10.66912 0,-2.11148 0.189839,-5.02173 1.119828,-7.54579 0.669705,-1.80169 1.802532,-3.50611 3.704683,-3.67109 1.933945,-0.16774 2.423654,1.60633 2.626197,2.37298 0.25786,0.97606 0.400218,2.39606 0.427364,4.25917 0.450965,-0.0391 0.744875,-0.17078 1.079004,-0.44855 0,-2.16713 0.03664,-4.29568 0.224275,-6.12831 -1.435864,-1.18954 -2.572338,-1.58655 -3.566707,-1.66605 z m -9.299174,1.44901 c -0.283801,0.0744 -1.247694,0.32488 -1.934249,0.43718 -0.836872,0.13689 -1.159306,0.16892 -1.913578,0.19224 0,0.37811 0.0022,0.61481 0.101802,1.71772 0.811787,-0.13281 1.138912,0.64133 1.282609,2.08876 0.08143,0.79332 0.121957,1.92972 0.121957,3.40858 v 13.33924 l -7.919413,-19.50579 c -0.593646,0.18737 -1.002539,0.28517 -1.363225,0.34417 l -1.506885,0.12506 c 0,0.37696 0.01388,1.09388 0.101803,1.71824 0.880908,-0.004 1.077457,0.43697 1.405082,1.23041 v 16.64912 c 0,1.50571 -0.04104,2.70896 -0.122473,3.60959 -0.138861,1.49014 -0.447765,2.41214 -1.282609,2.54869 -0.07832,0.47826 -0.101803,1.03396 -0.101803,1.75079 0.769862,-0.24247 1.424954,-0.35333 2.035535,-0.4532 0.334213,-0.0547 0.662697,-0.10165 1.026294,-0.14004 0.215932,0.24241 0.45896,0.4578 0.792717,0.58808 0.776905,0.91416 1.910409,1.4823 2.451013,2.60707 0.46139,0.40913 1.831805,2.31137 0.420129,1.84847 -0.469612,1.34867 -1.709243,0.61027 -2.6448,0.2899 -1.135803,0.18368 0.582952,0.89344 1.000456,1.03095 1.027268,0.0417 0.554364,1.38292 1.328084,1.44022 0.321894,1.12467 -1.27591,1.2066 -2.034501,1.43247 -1.120468,1.07098 0.874994,1.378 1.428854,0.58291 0.588687,-0.88484 2.566654,-0.15479 1.399397,0.75293 0.459147,0.50203 0.26763,1.53183 0.19327,2.36936 0.249447,1.18053 0.719198,-0.1194 0.982369,-0.48524 0.642974,0.59441 -0.612886,1.80288 -0.578776,2.62051 1.086694,0.0632 0.777581,-1.90726 1.611788,-2.41587 0.89074,0.50339 0.474696,2.13287 0.401526,3.06234 -0.209796,1.14647 1.191849,1.52542 1.519804,0.35502 0.518758,-1.37698 -1.470098,-2.16699 -0.945162,-3.54914 0.524553,-0.84996 1.468205,-1.83182 2.567285,-1.55856 1.049775,0.55612 2.062591,1.33223 2.580204,2.43034 0.477369,0.80371 1.017194,-0.13469 0.345199,-0.54777 -0.658849,-0.74595 -1.683273,-1.87179 -0.502812,-2.70577 0.971055,-0.56402 2.104562,-0.21694 3.107304,0.0868 0.876785,0.43767 1.731241,0.99324 2.757455,0.98134 1.360983,-0.40735 -0.715828,-1.48096 -1.365292,-1.52446 -1.102264,0.23315 -2.205515,-0.24186 -3.129525,-0.79943 -0.94571,-0.37957 -1.099638,-2.48993 0.29869,-1.71979 1.224359,0.24517 0.356097,-0.97133 -0.425814,-0.59997 -1.059725,-0.0194 0.386161,-0.34197 -0.0894,-0.4718 -0.578823,0.26293 -2.510705,0.21285 -1.97559,-0.64802 1.045428,-0.37917 1.800446,-1.22258 2.649968,-1.9079 0.810585,-0.42081 1.638905,-1.66679 2.569869,-1.36116 0.02019,-0.38343 0.754436,-0.85184 1.326017,-1.03197 1.279395,-0.36916 2.153942,-1.41329 3.22771,-2.13269 0.644432,-0.69993 1.895873,-1.02965 2.203483,-1.87069 -0.786845,-0.36399 -1.40518,1.09807 -2.231388,1.28778 -1.314308,0.58761 -2.269239,1.71956 -3.531568,2.38383 -1.251786,0.38347 -2.000434,1.54446 -3.19412,2.02779 -0.920938,0.038 -1.617366,1.58904 -2.376599,1.00872 -0.01629,0.38478 -0.236898,1.10929 -0.969967,0.85731 -0.26292,-0.81642 -0.193806,-2.08105 0.49196,-2.76107 -0.656171,-0.97454 -0.834109,1.42524 -1.753898,0.79272 -0.256333,-0.9815 1.163346,-2.05626 0.689363,-3.20498 -0.793457,0.14741 -0.148508,2.29215 -1.282092,2.15801 -0.507164,0.37867 -1.495115,1.86713 -1.758032,0.43047 -0.504665,-0.77189 0.101604,-2.35672 -0.863513,-2.60398 -0.189936,0.97231 0.413117,2.09715 0.148311,3.17397 -0.487003,0.41849 -1.273053,-1.11452 -1.591117,-1.5167 -0.232729,0.75311 1.55028,2.57468 -0.05116,2.72128 -1.15439,-0.41907 -1.935849,-1.45546 -2.730066,-2.34715 -0.385693,-0.79133 -0.848075,-1.61613 -1.492932,-2.22932 -0.01562,-0.50509 -0.04354,-0.86652 -0.0863,-1.11363 -0.831062,0.13598 -1.143488,-0.67697 -1.283126,-2.12958 -0.08142,-0.87402 -0.121439,-2.06407 -0.121439,-3.56981 v -13.96297 l 8.407755,20.37188 c 0.171176,-0.028 0.656747,-0.18731 0.874882,-0.38499 v -19.92385 c 0,-1.47885 0.03395,-2.62753 0.101803,-3.44526 0.134533,-1.3993 0.404026,-2.36514 1.099674,-2.47892 0.07027,-0.52199 0.101803,-1.09504 0.101803,-1.7508 z m 86.091904,1.51567 0.0202,0.0971 0.0129,0.062 c 0.71818,3.32589 1.46773,6.6457 2.20814,9.96735 -1.41598,-0.20476 -2.91846,-0.20436 -4.24212,0.0625 0.67968,-3.3938 1.38027,-6.78397 2.00091,-10.18904 z m -102.31727,1.08055 c -1.174792,0.1254 0.419827,-0.041 -2.971912,0.43822 l -2.748669,0.29301 c -1.141265,0.12259 -2.285383,0.26372 -3.419947,0.24442 v 5.2e-4 c 0,0.87615 0.03674,1.38246 0.101803,1.71824 0.809978,-0.0271 1.138254,0.43073 1.282609,1.27073 0.08143,0.47381 0.121956,1.16648 0.121956,2.07791 v 16.52612 c 0,1.04547 -0.04053,1.85405 -0.121956,2.42569 -0.128805,0.86191 -0.392618,1.43989 -1.282609,1.66502 -0.0768,0.41268 -0.101803,0.97554 -0.101803,1.74046 1.184475,-0.24874 1.096588,-0.166 2.442745,-0.38189 1.540377,-0.1643 3.081048,-0.32891 4.621424,-0.49351 1.535667,-0.0916 1.91234,-0.19129 2.564701,-0.19327 0.215638,-3.00489 0.375398,-4.46773 0.631486,-6.05855 -0.138882,-0.2595 -0.404621,-0.66283 -0.896069,-0.86919 -0.189982,1.11913 -0.406873,2.0672 -0.651123,2.84375 -0.690721,2.19601 -2.141424,2.51977 -3.341915,2.64842 -1.064521,0.11403 -1.608641,-0.14954 -1.808159,-1.25419 -0.095,-0.52601 -0.143143,-1.28501 -0.143143,-2.27686 v -7.27811 c 1.077225,-0.11583 2.261071,-0.42182 3.013252,0.44235 0.325722,0.44776 0.515709,1.36565 0.569991,2.75384 0.160999,0.0694 0.406435,0.15784 0.936377,0.10128 -0.04231,-1.5501 -0.04031,-3.10567 -0.04031,-4.6607 -0.01418,-1.45971 0.011,-2.92286 0.04031,-4.38681 -0.14779,0.0158 -0.571859,0.0958 -0.977201,0.38551 -0.01358,1.31498 -0.183293,2.20439 -0.509013,2.66805 -0.773613,0.9156 -2.006793,0.8573 -3.033406,0.96687 v -11.01742 l 1.893424,-0.20205 c 1.806471,-0.19278 2.651776,0.9341 3.012736,2.37246 0.190004,0.75712 0.298936,1.55005 0.326078,2.37815 0.448854,-0.0479 0.707173,-0.19671 0.916224,-0.58032 -0.166137,-1.4261 -0.292876,-3.39004 -0.427881,-6.30815 z m 7.240901,24.83621 c -0.03449,0.0201 -0.01733,0.12484 0.110588,0.37776 0.561359,0.2624 -0.0071,-0.43802 -0.110588,-0.37776 z m 73.746919,0.36587 c -5.81541,0.0182 -11.70199,0.64088 -17.61339,1.66347 -3e-4,5e-5 -0.21571,0.0377 -0.21601,0.0377 -6.6141,1.15541 -13.6974,2.9011 -20.13882,4.14187 -1.32371,0.25498 -2.60782,0.48768 -3.8654,0.69763 -4.20822,0.70253 -7.739611,1.14909 -10.814845,1.41387 -3.552093,0.30584 -6.447655,0.32326 -6.447668,0.32349 l 6.448185,0.32039 c 3.150111,0.0519 6.804938,-0.0407 11.023098,-0.41082 1.28472,-0.11272 2.59675,-0.24235 3.95118,-0.39068 6.75739,-0.74004 13.67021,-1.86656 20.37654,-3.00808 5.1e-4,-9e-5 0.21345,-0.0366 0.21394,-0.0367 6.81099,-1.16068 13.02613,-2.23936 19.59828,-2.59416 1.37757,-0.0744 2.7138,-0.11289 4.01681,-0.11575 3.10644,-0.007 6.20929,0.13744 9.43353,0.53743 0.30399,0.0377 0.60216,0.077 0.89401,0.11731 3.53049,0.48799 3.62578,0.18868 0.17311,-0.69815 -2.98334,-0.7663 -6.46985,-1.42905 -10.42933,-1.7477 -1.33064,-0.10712 -2.70046,-0.1821 -4.11552,-0.22117 -0.82772,-0.0227 -1.65692,-0.0326 -2.4877,-0.03 z m -72.059683,1.09916 c -0.240557,-0.0338 -0.39839,0.25552 0.108004,0.59738 0.100464,0.14103 0.373404,0.0682 0.288354,-0.12919 -0.07794,-0.31128 -0.252024,-0.44793 -0.396358,-0.46819 z m 1.798857,0.83871 c -0.472453,0.19755 0.373071,1.25622 0.49506,1.70791 0.561019,0.34718 -0.244652,-1.55272 -0.49506,-1.70791 z m 7.671366,0.0114 c -0.117434,0.01 -0.253014,0.14494 -0.257349,0.50798 0.59821,-0.19499 0.453072,-0.52469 0.257349,-0.50798 z m -14.123686,3.08973 c -0.100283,0.0274 -0.148663,0.17416 -0.03669,0.53589 0.771438,0.09 0.422947,-0.43476 0.150378,-0.5271 -0.04089,-0.0138 -0.08026,-0.0179 -0.113688,-0.009 z m 5.739702,5.77898 c -0.164346,0.009 -0.37998,0.10042 -0.506946,0.33331 0.02029,0.108 0.223784,0.006 0.250114,0.032 0.661874,-0.16748 0.53074,-0.38072 0.256832,-0.36535 z m 8.759155,2.52077 c -0.04093,0.007 -0.04802,0.081 0.02532,0.27854 0.524952,0.29089 0.09747,-0.29875 -0.02532,-0.27854 z m -11.715047,0.0842 c -0.748168,-0.0803 -1.22681,1.23916 -0.40411,1.60507 0.918311,0.40941 1.48578,-0.96397 0.738456,-1.47795 -0.114878,-0.0755 -0.227465,-0.11565 -0.334346,-0.12712 z m -2.267045,1.53375 c -0.184467,-0.0165 -0.317556,0.0499 -0.120407,0.29404 l 0.179834,0.0382 c 0.698413,-0.0472 0.248019,-0.30478 -0.05943,-0.33228 z" /><path
         id="path115"
         style="font-size:21.0759px;font-family:Vollkorn;-inkscape-font-specification:'Vollkorn, Normal';text-align:center;text-anchor:middle;fill:#fef5d2;fill-opacity:1;stroke:none;stroke-width:0.549464;stroke-linecap:round;paint-order:markers stroke fill"
         d="m 168.27035,110.42921 c -0.74636,-0.007 -1.50352,0.16268 -2.0469,0.58136 -1.03034,0.79389 -1.20052,1.40643 -1.41646,2.01228 -0.12808,0.35935 -0.18211,0.94553 -0.20412,1.44332 -0.0223,0.50494 0.19791,0.56259 0.46767,0.13488 0.26907,-0.42662 0.59011,-0.91454 0.79065,-1.14619 0.2851,-0.32932 0.58243,-0.56672 1.27796,-0.59583 0.26017,-0.0109 1.16571,0.2093 1.1529,0.68472 -1.34861,6.5111 -2.75145,12.89969 -4.1367,19.34714 -1.45236,0.2698 -2.55333,1.54265 -2.55333,3.07319 0,1.06879 0.53736,2.01164 1.35548,2.57556 -0.1315,0.62525 -0.2657,1.24301 -0.39636,1.87068 -0.17081,0.73665 -0.33708,1.40075 -0.62891,1.90376 -0.15968,0.27526 -0.38248,0.47771 -0.77928,0.87127 a 37.775307,27.705442 0 0 1 1.32861,0.3514 c 1.06188,0.26375 2.15979,0.58057 3.36568,1.07022 a 37.775307,27.705442 0 0 1 0.66301,0.25114 c -0.61547,-1.05735 -0.94299,-1.5049 -1.01699,-1.87068 -0.19927,-0.65186 -0.18019,-1.16081 -0.0589,-1.98696 0.22427,-1.18252 0.50688,-2.35775 0.71313,-3.54759 l 0.17932,-0.89297 c 1.8793,-1.03922 3.83907,-1.45035 5.85649,-1.40766 l 0.45062,2.12855 c 0.48402,2.43702 1.21043,4.785 1.62987,7.23728 0.18546,1.08429 0.60081,2.80594 0.88367,4.85449 a 37.775307,27.705442 0 0 1 4.74234,4.00699 c -0.11523,-3.66983 -1.82572,-10.34873 -1.82572,-10.34873 -1.73727,-7.22714 -3.31064,-14.4939 -4.98265,-21.73665 -0.7331,-3.22655 -1.46747,-6.45281 -2.19986,-9.67952 -0.15163,-0.66778 -1.36667,-1.17296 -2.61069,-1.18545 z m -125.490016,1.34565 c -2.417009,0.002 -4.851052,0.65643 -7.054349,2.09031 -3.603561,2.34516 -5.64203,5.3942 -5.642033,9.33845 -3e-6,4.63135 3.706954,8.38614 8.279598,8.38605 4.572642,9e-5 8.279601,-3.7547 8.279598,-8.38605 0,0 0.01501,-1.58543 -1.484147,-1.58543 -1.49923,0 -1.484664,1.58543 -1.484664,1.58543 2.44e-4,3.02191 -2.377336,5.47186 -5.310787,5.47202 -2.933771,3e-4 -5.312582,-2.44978 -5.312337,-5.47202 1.61e-4,-2.6272 0.885018,-4.16572 3.233394,-6.12314 2.348376,-1.95743 9.803538,-3.10906 14.188798,3.60081 1.322871,2.02412 1.262972,4.60611 1.262972,7.85276 0,2.55666 -0.210429,4.52523 -0.631486,5.90506 -0.421057,1.33925 -0.969108,2.27227 -1.642794,2.79983 -0.67369,0.52759 -1.399724,0.79117 -2.178678,0.79117 -0.294741,0 -0.578979,-0.0204 -0.852661,-0.061 -0.273686,-0.0812 -0.672059,-0.0443 -0.820622,-0.30438 l -0.292489,-0.51211 v -5.37745 c -2.441635,0 -1.964225,2.24017 -4.057116,2.24017 v 28.48095 c 0,3.51492 1.589223,6.47157 4.11086,7.42436 2.099595,0.79333 5.13885,0.62887 7.506518,-1.26298 2.37606,-1.89854 2.771658,-4.84414 2.257744,-7.12876 -0.464127,-2.06329 -2.531026,-3.53004 -4.573881,-3.56774 -0.21133,-0.004 -0.42247,0.008 -0.631486,0.0351 -0.844973,0.11164 -1.468481,0.48819 -1.9358,0.96532 -0.837324,0.85487 -0.336477,1.21218 0.804603,0.83819 0.260016,-0.0852 0.553526,-0.14163 0.901237,-0.15193 1.924369,-0.0571 3.447639,1.60742 3.323828,3.80442 -0.112934,2.00398 -1.562732,3.43083 -3.386357,3.57446 -2.129076,0.16769 -3.965244,-0.37722 -4.281392,-4.54598 l -0.03876,-22.40483 c 0.942916,0.54694 1.404213,0.60741 2.471684,0.59841 1.600011,0 4.511882,-0.90995 5.564518,-2.28978 1.052637,-1.37984 1.842531,-2.76869 2.368848,-4.9196 0.547372,-2.15091 0.820622,-4.383 0.820622,-6.69623 0,-2.11032 -0.231374,-4.05898 -0.694532,-5.84461 -0.463162,-1.78564 -1.221642,-3.22647 -2.274279,-4.32221 -2.785125,-3.02467 -6.765826,-4.83099 -10.794174,-4.8271 z m 97.939756,0.71779 c 0,0.3607 0.0131,1.10254 0.10077,1.7539 0.88233,0.23647 1.07701,0.73353 1.40508,1.6216 v 16.72663 c 0,1.5129 -0.0401,2.71035 -0.12144,3.59306 -0.13966,1.46749 -0.45221,2.30142 -1.2826,2.21124 -0.0786,0.46019 -0.10181,1.01148 -0.10181,1.73116 0.76988,-0.0335 1.42491,0.0339 2.03554,0.10025 0.59858,0.065 1.12521,0.12494 2.0159,0.33951 0,-0.97326 -0.0432,-1.39265 -0.10232,-1.75286 -0.83108,-0.0903 -1.143,-0.99217 -1.28261,-2.48977 -0.0814,-0.90039 -0.12144,-2.10704 -0.12144,-3.61994 v -14.0286 l 8.40775,22.76244 c 0.16794,0.0181 0.65367,-0.007 0.87488,-0.1478 v -20.206 c 0,-1.48589 0.0339,-2.63029 0.10181,-3.43338 0.13461,-1.36986 0.40429,-2.26604 1.09915,-2.19056 0.0916,-0.65833 0.10181,-1.29931 0.10181,-1.73168 -0.22901,-0.002 -1.24226,-0.0133 -1.93373,-0.0884 -0.82198,-0.0893 -1.13531,-0.14214 -1.91358,-0.32969 0,0.37669 0.001,0.61047 0.10128,1.75389 0.81179,0.0882 1.13891,0.95537 1.28261,2.44895 0.0814,0.81932 0.12248,1.97229 0.12248,3.45819 v 13.58987 l -7.91993,-21.75992 c -0.95519,0.0968 -1.91001,-0.13035 -2.8696,-0.31212 z m -8.18399,0.1142 c -0.30091,-3e-4 -0.4786,0.0356 -0.79375,0.1602 l -4.21422,21.39404 c -0.20357,1.04755 -0.38647,1.88033 -0.54932,2.49804 -0.26604,1.05303 -0.54357,1.61749 -1.07952,1.8526 -0.11214,0.49967 -0.14262,0.98338 -0.14262,1.6924 0.18999,-0.0265 0.4347,-0.0531 0.73328,-0.0796 0.54829,-0.0505 1.09862,-0.0394 1.64848,-0.0388 0.58581,0.0652 0.57045,10e-4 1.2423,0.12247 0,-0.003 -7.2e-4,-1.10216 -0.14262,-1.73323 -0.55644,-0.0813 -0.89537,-0.417 -1.01751,-1.00821 -0.12628,-2.04776 0.43905,-4.10016 0.8263,-6.0973 2.24725,-0.13231 4.68482,-0.14182 5.38986,-0.14211 l 0.88831,4.11138 c 0.27143,1.23612 0.35298,2.04194 0.24443,2.41794 -0.0951,0.34917 -0.42025,0.59028 -0.97668,0.72399 -0.13764,0.61324 -0.14315,1.12404 -0.14315,1.73322 0.57526,-0.0579 1.15264,-0.0984 1.73065,-0.11989 0.96422,-0.0364 1.93331,-0.0133 2.89078,0.12454 0,-0.80075 -0.0359,-1.17638 -0.12248,-1.73271 -0.56005,-0.22258 -0.78404,-0.80319 -0.99787,-1.57303 -0.14928,-0.53749 -0.33927,-1.30376 -0.56999,-2.29805 z m -5.04931,0.10387 c -1.26596,0.2195 -2.54495,0.43263 -3.80648,0.33487 0,0.89815 0.0723,1.50513 0.10128,1.71152 0.61073,0.0796 0.96388,0.52917 1.05885,1.34772 0.0965,0.70245 0.10343,1.36681 -0.21549,3.34605 -0.19788,1.22802 -0.52087,2.96214 -1.02578,5.52576 -0.57732,3.00114 -1.41256,7.02202 -2.01073,9.75444 l -0.003,-0.0119 c 0,0 -1.38427,-7.19123 -1.95595,-9.99319 -0.52852,-2.59038 -1.17916,-5.15358 -1.54719,-7.78609 -0.0316,-0.71038 0.0249,-1.53299 1.28261,-1.79369 0.0119,-0.13066 0.1018,-1.26593 0.1018,-1.72961 -1.64895,0.26148 -1.93956,0.29132 -2.46342,0.33745 -0.82215,0.0724 -1.65163,0.1787 -2.46289,0.0966 0,0.81537 0.0618,1.40074 0.1018,1.71153 0.54089,0.0705 0.77046,0.48131 1.05833,1.5875 0.51399,1.9752 1.53305,6.79025 1.97507,8.94881 h -5.1e-4 c 0.99471,4.86898 1.94091,9.75234 2.91093,14.62856 0.33988,-0.0299 0.65053,-0.16124 0.79375,-0.22996 1.43917,-6.99887 2.76388,-14.01395 4.25711,-21.00492 0.24534,-1.14865 0.49515,-2.29653 0.75085,-3.44372 0.24429,-0.84844 0.57715,-1.38439 0.99788,-1.60817 0.0618,-0.45158 0.1018,-0.92692 0.1018,-1.72961 z m 28.33832,1.27538 c 0,0.7862 0.026,1.36621 0.10181,1.79058 0.36644,0.10681 0.65115,0.29207 0.85472,0.55553 0.20358,0.26344 0.34646,0.651 0.42789,1.1622 0.0814,0.51118 0.12195,1.23248 0.12195,2.16472 v 17.35657 c 0,0.90486 -0.0405,1.6092 -0.12195,2.11253 -0.15335,0.89629 -0.47488,1.21613 -1.28261,1.16169 -0.0633,0.32743 -0.10181,0.8037 -0.10181,1.74614 0.8179,0.0601 1.6372,0.21798 2.4629,0.41031 0.78019,0.18177 1.56097,0.33527 2.33526,0.61754 a 37.775307,27.705442 0 0 1 0.12816,0.0294 c -2.7e-4,-0.77392 -0.025,-1.35001 -0.1018,-1.78077 -0.8609,-0.3203 -1.14047,-0.82804 -1.2821,-1.7172 -0.0814,-0.53861 -0.12299,-1.26039 -0.12299,-2.16525 v -17.35604 c 0,-0.93226 0.0416,-1.63664 0.12299,-2.11254 0.0814,-0.47592 0.22379,-0.80142 0.42737,-0.97668 0.21714,-0.17221 0.50188,-0.234 0.85473,-0.185 0.0642,-0.33192 0.10231,-0.82689 0.10231,-1.74667 -1.1741,-0.13599 -1.46388,-0.19316 -2.46393,-0.40979 -1.10369,-0.23909 -1.42818,-0.32305 -2.4629,-0.65732 z m -45.27475,0.68781 c -1.18664,0.35799 -1.47046,0.41958 -2.46393,0.62115 -1.12777,0.2288 -1.70314,0.29958 -2.4629,0.37827 0,0.46621 0.006,1.23384 0.10128,1.71773 0.81506,-0.10544 1.13958,0.33138 1.28261,1.15445 0.0814,0.46855 0.12248,1.16111 0.12248,2.07739 v 16.61449 c 0,1.05104 -0.0471,1.86893 -0.14212,2.45411 -0.12842,0.87603 -0.391,1.48437 -1.2826,1.79628 -0.0633,0.34815 -0.10181,0.83278 -0.10181,1.75906 1.06851,-0.32766 1.34374,-0.39403 2.44275,-0.61701 l 2.82928,-0.57413 c 1.31666,-0.26714 2.63428,-0.51963 3.94912,-0.72037 0.22447,-3.16549 0.38635,-4.59683 0.63148,-6.15104 -0.13535,-0.24134 -0.4014,-0.62703 -0.89607,-0.78859 -0.6279,3.71194 -1.31733,4.53834 -1.77043,4.96766 -0.79976,0.75778 -2.43227,1.1505 -3.07423,0.78548 -0.42492,-0.26905 -0.6718,-0.96305 -0.6718,-3.30006 v -16.49253 c 0,-0.94321 0.041,-1.67957 0.12248,-2.20813 0.11357,-0.73731 0.3507,-1.45478 1.28261,-1.71514 0.0642,-0.35293 0.1018,-0.85505 0.1018,-1.75907 z m -7.22747,1.54771 c -1.1741,0.37998 -1.46335,0.45008 -2.46341,0.67489 -1.103713,0.24813 -1.428709,0.30799 -2.463419,0.43253 0,0.72908 0.02283,1.31203 0.101803,1.71153 0.814729,-0.12335 1.139502,0.30498 1.282609,1.12344 0.08143,0.46569 0.121956,1.15541 0.121956,2.06964 v 17.02119 c 0,0.88736 -0.04053,1.59573 -0.121956,2.12493 -0.153372,0.94608 -0.47492,1.39988 -1.282609,1.69964 -0.06302,0.34715 -0.101803,0.82654 -0.101803,1.75752 0.817898,-0.29866 1.637729,-0.50249 2.463419,-0.6749 0.82329,-0.17186 1.64712,-0.38403 2.46341,-0.43253 0,-0.76574 -0.0241,-1.32109 -0.10128,-1.71152 -0.86091,0.0623 -1.14097,-0.31339 -1.28261,-1.12345 -0.0814,-0.4926 -0.12248,-1.1828 -0.12248,-2.07016 v -17.02066 c 0,-0.91425 0.041,-1.62265 0.12248,-2.12494 0.11518,-0.71041 0.36399,-1.42355 1.28261,-1.70015 0.0642,-0.35357 0.10128,-0.85498 0.10128,-1.757 z m 28.27114,1.62109 c 0.27655,1.47034 0.59142,2.93237 0.90124,4.3956 l 1.55029,7.17423 -4.61883,-0.005 1.39939,-7.21145 c 0.19503,-1.0293 0.52482,-2.84826 0.76791,-4.35322 z m -39.166597,1.09347 c -0.331455,-0.0265 -0.647126,-0.0179 -0.952913,0.009 -2.290319,0.19864 -3.821031,2.15264 -4.702555,3.75791 -1.690799,3.14142 -2.09703,7.16935 -2.09703,10.31048 0,2.87238 0.362423,8.72972 3.115055,11.86852 0.977162,1.07131 2.096802,1.55228 3.358968,1.44281 1.031446,-0.0895 1.933742,-0.4436 2.707329,-1.06247 0.787157,-0.6463 1.581038,-1.60857 2.381766,-2.88664 -0.02354,-0.31696 -0.229297,-0.98084 -0.366386,-1.19011 -0.906406,1.20667 -2.337932,2.52811 -3.86798,2.66082 -1.085734,0.0942 -2.015393,-0.37693 -2.788978,-1.41335 -2.348142,-3.146 -2.40192,-9.16041 -2.40192,-10.66912 0,-2.1115 0.189838,-5.02173 1.119828,-7.54579 0.669707,-1.80169 1.802531,-3.50611 3.704684,-3.67109 1.933947,-0.16774 2.423653,1.60633 2.626196,2.37298 0.257862,0.97606 0.400218,2.39606 0.427364,4.25917 0.450967,-0.0391 0.744875,-0.17078 1.079004,-0.44855 0,-2.16713 0.03664,-4.29568 0.224276,-6.12831 -1.435867,-1.18954 -2.572338,-1.58655 -3.566708,-1.66605 z m -9.299174,1.44901 c -0.2838,0.0744 -1.247692,0.32488 -1.934249,0.43718 -0.836873,0.13689 -1.159305,0.16892 -1.913578,0.19224 0,0.37811 0.0022,0.61481 0.101803,1.71772 0.811786,-0.13281 1.13891,0.64132 1.282609,2.08876 0.08143,0.79332 0.121956,1.92972 0.121956,3.40858 v 13.33924 l -7.919413,-19.50579 c -0.593646,0.18737 -1.002539,0.28517 -1.363224,0.34417 l -1.506885,0.12505 c 0,0.37696 0.01388,1.09389 0.101802,1.71825 0.88091,-0.004 1.077456,0.43697 1.405083,1.23041 v 16.64911 c 0,1.50573 -0.04104,2.70895 -0.122474,3.6096 -0.13886,1.49014 -0.447763,2.41214 -1.282609,2.54869 -0.07832,0.47825 -0.101802,1.03396 -0.101802,1.75079 0.769861,-0.24247 1.424952,-0.35333 2.035534,-0.4532 0.600555,-0.0982 1.12746,-0.18123 2.015898,-0.20929 0,-0.97144 -0.04278,-1.37609 -0.101802,-1.71721 -0.831064,0.13598 -1.143488,-0.67697 -1.283126,-2.12958 -0.08142,-0.87402 -0.12144,-2.06407 -0.12144,-3.56981 v -13.96297 l 8.407756,20.37188 c 0.171175,-0.028 0.656745,-0.18731 0.874882,-0.38499 v -19.92385 c 0,-1.47887 0.03395,-2.62754 0.101802,-3.44527 0.134533,-1.39929 0.404025,-2.36513 1.099675,-2.47891 0.07027,-0.52199 0.101802,-1.09504 0.101802,-1.7508 z m 86.091901,1.51567 0.0202,0.0971 0.0129,0.062 c 0.71818,3.32589 1.46773,6.64569 2.20814,9.96735 -1.41598,-0.20476 -2.91846,-0.20439 -4.24212,0.0625 0.67968,-3.39381 1.38028,-6.78398 2.00091,-10.18904 z m -102.317267,1.08055 c -1.174793,0.1254 0.41983,-0.041 -2.971912,0.43822 l -2.748669,0.293 c -1.141266,0.12259 -2.285381,0.26373 -3.419946,0.24443 v 5.2e-4 c 0,0.87615 0.03674,1.38246 0.101802,1.71824 0.809979,-0.0271 1.138254,0.43073 1.282609,1.27073 0.08143,0.4738 0.121957,1.16648 0.121957,2.0779 v 16.52613 c 0,1.04547 -0.04053,1.85405 -0.121957,2.42569 -0.128805,0.86191 -0.392617,1.43988 -1.282609,1.66501 -0.0768,0.4127 -0.101802,0.97555 -0.101802,1.74047 1.184476,-0.24874 1.096585,-0.166 2.442745,-0.38189 1.540377,-0.1643 3.081047,-0.32891 4.621423,-0.49351 1.535669,-0.0916 1.912339,-0.19129 2.564701,-0.19327 0.215638,-3.00489 0.375399,-4.46773 0.631486,-6.05855 -0.138882,-0.2595 -0.404619,-0.66283 -0.896069,-0.86919 -0.189982,1.11912 -0.406871,2.0672 -0.651123,2.84375 -0.69072,2.19601 -2.141423,2.51977 -3.341915,2.64842 -1.064522,0.11403 -1.60864,-0.14954 -1.808158,-1.25419 -0.095,-0.52601 -0.143144,-1.28502 -0.143144,-2.27686 v -7.27811 c 1.077226,-0.11583 2.261071,-0.42182 3.013253,0.44235 0.325721,0.44776 0.515707,1.36565 0.569991,2.75383 0.160999,0.0694 0.406433,0.15785 0.936377,0.10129 -0.04231,-1.5501 -0.04031,-3.10567 -0.04031,-4.6607 -0.01418,-1.45973 0.011,-2.92286 0.04031,-4.38681 -0.147792,0.0158 -0.57186,0.0958 -0.977202,0.38551 -0.01358,1.31498 -0.183293,2.20439 -0.509012,2.66805 -0.773615,0.9156 -2.006793,0.8573 -3.033407,0.96687 v -11.01742 l 1.893424,-0.20205 c 1.806474,-0.19278 2.651775,0.9341 3.012736,2.37246 0.190004,0.75712 0.298937,1.55005 0.326079,2.37815 0.448853,-0.0479 0.707172,-0.19672 0.916223,-0.58033 -0.166137,-1.42609 -0.292876,-3.39003 -0.427881,-6.30814 z" /><g
         id="g65"
         style="fill:#fef5d2;fill-opacity:1"
         transform="rotate(-1.1977406,-177.2148,-761.40749)"><path
           style="fill:#fef5d2;fill-opacity:1;fill-rule:nonzero;stroke:none;stroke-width:2;stroke-linecap:round;stroke-dasharray:none;stroke-opacity:1;paint-order:markers stroke fill"
           d="m 72.797993,171.65915 c 3.148189,-0.12179 6.792679,-0.41591 10.984042,-1.01801 1.276547,-0.18338 2.579153,-0.38477 3.92334,-0.60754 6.706333,-1.11146 13.546595,-2.61777 20.179795,-4.12728 l 0.21159,-0.0482 c 6.73666,-1.53441 12.88266,-2.95429 19.42528,-3.67088 1.37137,-0.1502 2.70385,-0.2624 4.00472,-0.33709 3.10134,-0.17808 6.20705,-0.20483 9.44846,0.0168 0.3056,0.0209 0.60538,0.0436 0.89901,0.0678 3.55205,0.29261 3.63063,-0.0115 0.13432,-0.70664 -3.02107,-0.60065 -6.5387,-1.07011 -10.50975,-1.16998 -1.33452,-0.0336 -2.7061,-0.033 -4.12116,0.006 -6.62182,0.1841 -13.29941,1.1999 -19.98061,2.73925 l -0.21367,0.0494 c -6.54036,1.51829 -13.516262,3.65182 -19.879502,5.24582 -1.307642,0.32757 -2.577119,0.63105 -3.82121,0.91001 -4.163089,0.93347 -7.664655,1.57398 -10.720621,2.0079 -3.529837,0.50121 -3.526815,0.7801 0.03597,0.64226 z"
           id="path93"
           sodipodi:nodetypes="cc"
           inkscape:path-effect="#path-effect94;#path-effect95"
           inkscape:original-d="m 66.34228,171.69482 c 29.424278,-0.58127 53.11182,-15.95915 81.92763,-8.89939"
           transform="rotate(4.3581057,197.68583,208.9155)" /></g><path
         style="fill:#fef5d2;fill-opacity:1;stroke-width:0.178539"
         d="m 79.810732,165.17011 c 0.07317,-0.92947 0.488865,-2.55903 -0.401877,-3.06242 -0.834209,0.50861 -0.524597,2.47914 -1.611293,2.41594 -0.03411,-0.81763 1.221739,-2.02596 0.578765,-2.62037 -0.263171,0.36584 -0.733329,1.66572 -0.982776,0.48519 0.07436,-0.83753 0.266035,-1.86738 -0.193112,-2.36941 1.167259,-0.90772 -0.810813,-1.63788 -1.399502,-0.75304 -0.55386,0.79509 -2.549025,0.48854 -1.428555,-0.58244 0.758593,-0.22587 2.356182,-0.30813 2.034288,-1.4328 -0.773722,-0.0573 -0.300735,-1.39841 -1.328005,-1.44011 -0.417506,-0.13751 -2.136236,-0.84717 -1.000431,-1.03085 0.935559,0.32037 2.174926,1.05868 2.64454,-0.28999 1.411678,0.4629 0.04134,-1.43959 -0.420052,-1.84872 -0.540604,-1.12477 -1.674178,-1.69253 -2.451085,-2.60669 -1.114593,-0.43507 -1.328451,-1.7076 -2.269356,-2.40026 -0.106595,-1.41804 1.345726,-9.1e-4 1.683121,0.57054 1.076581,0.57923 1.736785,1.72293 2.260862,2.79819 0.794219,0.89169 1.575602,1.92801 2.729994,2.34708 1.601444,-0.1466 -0.181639,-1.96806 0.05109,-2.72119 0.318066,0.4022 1.103971,1.93476 1.590974,1.51627 0.264806,-1.07682 -0.337913,-2.2013 -0.147977,-3.17361 0.965119,0.24726 0.358906,1.83197 0.863571,2.60386 0.262919,1.43666 1.250672,-0.0517 1.757836,-0.43037 1.133586,0.13414 0.488414,-2.01065 1.281873,-2.15806 0.473983,1.14872 -0.945387,2.22345 -0.689054,3.20495 0.919791,0.63252 1.097361,-1.76743 1.753532,-0.79289 -0.685766,0.68002 -0.754715,1.94493 -0.491795,2.76135 0.733071,0.25198 0.953501,-0.47266 0.969786,-0.85744 0.759235,0.58032 1.455708,-0.97059 2.376648,-1.00863 1.193688,-0.48333 1.942709,-1.6444 3.194497,-2.02787 1.262331,-0.66427 2.217074,-1.79609 3.531384,-2.3837 0.82621,-0.18971 1.444408,-1.65202 2.231255,-1.28803 -0.30761,0.84104 -1.558734,1.17077 -2.203168,1.8707 -1.07377,0.7194 -1.948222,1.76362 -3.227619,2.13278 -0.571581,0.18013 -1.306118,0.64829 -1.326309,1.03172 -0.930966,-0.30563 -1.759271,0.94046 -2.569858,1.36127 -0.849522,0.68532 -1.604479,1.52864 -2.649909,1.90781 -0.535117,0.86089 1.396619,0.9114 1.975444,0.64847 0.475561,0.12983 -0.970447,0.45225 0.08928,0.4717 0.781911,-0.37136 1.650284,0.84502 0.425923,0.59985 -1.398332,-0.77014 -1.244324,1.34039 -0.298612,1.71996 0.92401,0.55757 2.027117,1.03228 3.129383,0.79913 0.649464,0.0435 2.72628,1.11744 1.365293,1.52479 -1.026216,0.0119 -1.880304,-0.5437 -2.757091,-0.98137 -1.002744,-0.30376 -2.136256,-0.65112 -3.107313,-0.0871 -1.180463,0.83398 -0.156043,1.96002 0.502808,2.70597 0.671997,0.41308 0.132256,1.35163 -0.345113,0.54792 -0.517615,-1.09813 -1.530455,-1.8744 -2.580232,-2.43052 -1.099082,-0.27326 -2.043026,0.70842 -2.567581,1.55838 -0.524936,1.38215 1.463795,2.1723 0.945035,3.54928 -0.327955,1.1704 -1.729372,0.79119 -1.519576,-0.35528 z m -8.236587,-1.73559 c -0.525735,-0.65095 1.297029,-0.0373 0.179567,0.0382 z m 1.983355,-0.22255 c -0.94023,-0.41818 -0.180874,-2.08198 0.738155,-1.47821 0.747326,0.51398 0.180158,1.88762 -0.738155,1.47821 z m 12.144384,-1.4108 c -0.293379,-0.79013 0.699936,0.38785 0,0 z m -9.291675,-2.46597 c 0.338578,-0.62105 1.309074,-0.23637 0.250073,0.0316 -0.02633,-0.0262 -0.229787,0.0764 -0.250073,-0.0316 z m -5.269391,-5.57643 c -0.398126,-1.28617 1.234304,0.14407 0,0 z m 6.984192,-1.92919 c -0.121989,-0.45169 -0.967459,-1.51051 -0.495006,-1.70806 0.25041,0.15519 1.056027,2.05524 0.495006,1.70806 z m 6.919004,-1.18876 c 0.01156,-0.96809 0.957136,-0.31198 0,0 z m -9.105077,-0.76068 c -0.81023,-0.54697 0.08075,-0.95935 0.28858,-0.12928 0.08505,0.19741 -0.188116,0.27031 -0.28858,0.12928 z m -1.684465,-1.68468 c -0.511689,-1.01169 0.748481,0.34987 0,0 z"
         id="path1-6" /><path
         id="path1-64"
         style="fill:#fef5d2;fill-opacity:1;fill-rule:nonzero;stroke:none;stroke-width:0.267109;stroke-linecap:round;stroke-dasharray:none;paint-order:markers stroke fill"
         d="m 83.838741,103.00925 c -0.711106,0.1123 -1.418064,0.26873 -2.131113,0.46352 0.835037,0.30145 1.777756,0.55976 3.173482,1.35554 1.503907,0.85747 1.912992,0.94906 3.000622,2.20517 -0.517944,-0.34467 -2.074229,-1.2911 -2.657698,-1.50706 -1.005404,-0.37215 -2.815937,-1.14639 -4.744106,-1.17079 -1.819764,-0.023 -2.992895,0.56928 -4.673789,1.28437 1.230756,0.0481 2.270995,0.24595 3.434946,0.59367 0.862966,0.25781 1.649292,0.70475 2.442923,1.1306 -0.70391,-0.22337 -1.281905,-0.37983 -2.004301,-0.53321 -0.758117,-0.16097 -3.873183,-0.60376 -5.990631,0.1261 -2.079995,0.71692 -4.717459,3.14088 -4.717459,3.14088 1.087097,0.004 2.131877,0.059 3.237363,0.21456 0.896568,0.12617 2.520452,0.51301 3.412827,0.66605 0,0 -2.206508,-0.13208 -3.162383,-0.17552 -2.000248,-0.0909 -3.877055,-0.06 -5.266413,0.79723 -1.445082,0.89162 -1.713142,2.31074 -2.926392,2.98932 0.672699,-0.0476 1.024026,-0.25163 1.708057,-0.24106 l 1.648188,0.0257 c -1.995595,0.22495 -3.323035,0.62002 -4.019021,0.99027 -0.568894,0.86235 -0.793642,1.31656 -2.247855,2.94824 -0.493114,0.55329 -1.624089,1.71738 -1.624089,1.71738 1.610704,-0.37636 3.101054,-0.41607 4.875199,-0.9913 1.197168,-0.38818 2.233884,-1.05914 3.234279,-1.82274 0.545014,-0.41602 0.989782,-0.76455 1.602441,-1.31996 0,0 -1.281654,1.59561 -2.103072,2.35958 -0.789355,0.73414 -2.440464,1.54109 -2.440464,1.54109 2.201859,-0.28195 4.034458,-0.53936 5.809709,-1.56995 1.764019,-1.02403 3.277941,-3.35411 4.62856,-4.92396 -0.673305,1.61998 -1.200213,3.3685 -2.557779,4.91517 2.069897,-1.27841 4.576879,-1.00891 6.357373,-2.10316 0.382365,-0.5068 0.445036,-1.44674 0.409917,-2.27612 0.349791,0.5454 0.639487,1.10002 0.898576,1.89394 2.196315,-0.007 3.828064,-0.69998 5.626411,-1.64318 1.002976,-0.52606 3.493197,-2.61377 4.362002,-4.28255 0,0 -1.066123,2.03914 -1.792286,3.01206 -0.509713,0.68291 -1.598423,1.75768 -1.828352,1.93868 1.676152,-0.43393 2.727069,-0.9671 4.116928,-2.00968 1.513722,-1.16746 2.838561,-2.89529 3.690879,-3.96945 0,0 -0.31107,1.72784 -1.586544,3.34972 -0.489383,0.6223 -2.152899,1.83685 -2.152899,1.83685 l 1.998021,-0.45901 c 2.68979,-0.51456 4.402536,-1.6148 5.998535,-3.58702 l 1.099622,-1.35867 c 0,0 -0.175939,1.18835 -0.579778,1.82293 -0.428473,0.67331 -0.8487,1.21568 -0.8487,1.21568 0,0 1.006653,-0.56581 1.783173,-1.26336 0.96337,-0.8654 1.54363,-1.92493 1.72053,-2.27348 1.66182,-0.008 3.23435,0.0617 4.75539,0.25657 1.85362,0.23745 3.47002,0.63114 5.01017,1.14277 2.74205,0.91091 4.97096,2.14163 5.45349,1.99081 0.14909,-0.0466 0.16523,-0.27377 0.19883,-0.32938 0.0332,-0.0549 0.22895,-0.17564 0.19911,-0.32943 -0.095,-0.48999 -2.3097,-2.0642 -5.24415,-3.10133 -1.65591,-0.58526 -3.43532,-0.97648 -5.42167,-1.15974 -1.8531,-0.17099 -3.74132,-0.14884 -5.70701,-0.0295 -2.142717,0.13007 -4.563773,0.39437 -6.468346,0.58742 7.6e-5,-10e-6 -0.06493,0.007 -0.06484,0.007 -7.665656,0.76384 -14.366439,2.66799 -19.776687,4.74773 -3.071966,1.1809 -5.570563,2.35815 -7.31141,3.22581 -0.494604,0.24652 -0.927171,0.456 -1.32295,0.66092 -0.460684,0.23853 -0.890194,0.46984 -1.284405,0.68822 -0.736948,0.40828 -1.088635,0.64268 -1.065191,0.68614 -0.0253,-0.0427 0.322325,-0.28229 1.054011,-0.70256 0.390777,-0.22447 0.816595,-0.46245 1.273535,-0.70807 0.392561,-0.21103 0.82186,-0.42697 1.312587,-0.68111 1.727205,-0.89452 4.207257,-2.11034 7.260566,-3.33866 5.377393,-2.16328 12.048078,-4.17102 19.700985,-5.0534 -8.4e-5,1e-5 0.06458,-0.007 0.06458,-0.007 0.08168,-0.01 0.186199,-0.0216 0.26974,-0.0314 -2.501976,-2.14272 -4.397467,-3.55436 -7.466506,-3.74853 -1.253559,-0.0793 -2.450041,-0.0133 -3.635126,0.17442 z m 6.169654,-0.73734 c 0,0 1.912128,0.93873 3.177408,2.07414 0.732867,0.65765 1.942618,2.17734 1.970213,2.21202 1.35837,-0.16035 2.894346,-0.34551 4.424762,-0.49428 -0.718742,-0.83834 -1.580598,-1.56105 -2.514908,-2.18873 -2.205951,-1.48195 -4.20566,-1.65012 -7.057479,-1.60319 z m 8.42043,1.452 c 0,0 0.814408,0.90053 1.251058,1.49377 0.149448,0.20304 0.315675,0.51178 0.459447,0.79668 0.33194,-0.0295 0.66777,-0.0627 0.98986,-0.0872 0.0707,-0.006 0.1397,-0.008 0.21024,-0.0133 -0.27208,-0.37964 -0.57493,-0.77087 -0.8546,-1.01447 -0.693266,-0.60389 -2.055997,-1.1755 -2.055997,-1.1755 z"
         inkscape:transform-center-x="28.868995"
         inkscape:transform-center-y="0.11570472" /></g></g></svg>
